<mxfile host="app.diagrams.net" agent="Mozilla/5.0 (X11; Linux x86_64; rv:130.0) Gecko/20100101 Firefox/130.0" version="24.7.8">
  <diagram name="Page-1" id="KLlwr_kpMgR536ct1kNm">
    <mxGraphModel dx="1354" dy="550" grid="1" gridSize="10" guides="1" tooltips="1" connect="1" arrows="1" fold="1" page="1" pageScale="1" pageWidth="850" pageHeight="1100" math="0" shadow="0">
      <root>
        <mxCell id="0" />
        <mxCell id="1" parent="0" />
        <mxCell id="JoFvKGABeKlZMph5uTe8-81" value="" style="rounded=0;whiteSpace=wrap;html=1;" vertex="1" parent="1">
          <mxGeometry x="635" y="239.34" width="205" height="180.66" as="geometry" />
        </mxCell>
        <mxCell id="JoFvKGABeKlZMph5uTe8-39" value="" style="rounded=0;whiteSpace=wrap;html=1;" vertex="1" parent="1">
          <mxGeometry x="370" y="239.34" width="180" height="425" as="geometry" />
        </mxCell>
        <mxCell id="JoFvKGABeKlZMph5uTe8-1" value="" style="whiteSpace=wrap;html=1;aspect=fixed;" vertex="1" parent="1">
          <mxGeometry x="80" y="250" width="140" height="140" as="geometry" />
        </mxCell>
        <mxCell id="JoFvKGABeKlZMph5uTe8-2" value="Cliente: Browser" style="text;html=1;align=center;verticalAlign=middle;resizable=0;points=[];autosize=1;strokeColor=none;fillColor=none;" vertex="1" parent="1">
          <mxGeometry x="90" y="250" width="110" height="30" as="geometry" />
        </mxCell>
        <mxCell id="JoFvKGABeKlZMph5uTe8-4" value="" style="rounded=0;whiteSpace=wrap;html=1;" vertex="1" parent="1">
          <mxGeometry x="110" y="300" width="100" height="50" as="geometry" />
        </mxCell>
        <mxCell id="JoFvKGABeKlZMph5uTe8-5" value="&lt;div&gt;Interface do&lt;/div&gt;&lt;div&gt;usuário&lt;br&gt;&lt;/div&gt;" style="text;html=1;align=center;verticalAlign=middle;resizable=0;points=[];autosize=1;strokeColor=none;fillColor=none;" vertex="1" parent="1">
          <mxGeometry x="120" y="305" width="90" height="40" as="geometry" />
        </mxCell>
        <mxCell id="JoFvKGABeKlZMph5uTe8-6" value="" style="rounded=1;whiteSpace=wrap;html=1;" vertex="1" parent="1">
          <mxGeometry x="90" y="310" width="30" height="10" as="geometry" />
        </mxCell>
        <mxCell id="JoFvKGABeKlZMph5uTe8-12" value="" style="rounded=1;whiteSpace=wrap;html=1;" vertex="1" parent="1">
          <mxGeometry x="90" y="330" width="30" height="10" as="geometry" />
        </mxCell>
        <mxCell id="JoFvKGABeKlZMph5uTe8-14" value="" style="endArrow=none;html=1;rounded=0;entryX=0.011;entryY=0.103;entryDx=0;entryDy=0;exitX=1;exitY=0.25;exitDx=0;exitDy=0;entryPerimeter=0;" edge="1" parent="1" source="JoFvKGABeKlZMph5uTe8-1" target="JoFvKGABeKlZMph5uTe8-39">
          <mxGeometry width="50" height="50" relative="1" as="geometry">
            <mxPoint x="220" y="261.5918181818182" as="sourcePoint" />
            <mxPoint x="360" y="350" as="targetPoint" />
          </mxGeometry>
        </mxCell>
        <mxCell id="JoFvKGABeKlZMph5uTe8-15" value="&amp;lt;HTTP&amp;gt;" style="text;html=1;align=center;verticalAlign=middle;resizable=0;points=[];autosize=1;strokeColor=none;fillColor=none;" vertex="1" parent="1">
          <mxGeometry x="260" y="260" width="70" height="30" as="geometry" />
        </mxCell>
        <mxCell id="JoFvKGABeKlZMph5uTe8-16" value="Servidor da aplicação" style="text;html=1;align=center;verticalAlign=middle;resizable=0;points=[];autosize=1;strokeColor=none;fillColor=none;" vertex="1" parent="1">
          <mxGeometry x="400" y="250" width="140" height="30" as="geometry" />
        </mxCell>
        <mxCell id="JoFvKGABeKlZMph5uTe8-17" value="" style="rounded=0;whiteSpace=wrap;html=1;" vertex="1" parent="1">
          <mxGeometry x="420" y="295" width="100" height="50" as="geometry" />
        </mxCell>
        <mxCell id="JoFvKGABeKlZMph5uTe8-18" value="Competições" style="text;html=1;align=center;verticalAlign=middle;resizable=0;points=[];autosize=1;strokeColor=none;fillColor=none;" vertex="1" parent="1">
          <mxGeometry x="430" y="305" width="90" height="30" as="geometry" />
        </mxCell>
        <mxCell id="JoFvKGABeKlZMph5uTe8-19" value="" style="rounded=1;whiteSpace=wrap;html=1;" vertex="1" parent="1">
          <mxGeometry x="400" y="305" width="30" height="10" as="geometry" />
        </mxCell>
        <mxCell id="JoFvKGABeKlZMph5uTe8-20" value="" style="rounded=1;whiteSpace=wrap;html=1;" vertex="1" parent="1">
          <mxGeometry x="400" y="325" width="30" height="10" as="geometry" />
        </mxCell>
        <mxCell id="JoFvKGABeKlZMph5uTe8-21" value="" style="rounded=0;whiteSpace=wrap;html=1;" vertex="1" parent="1">
          <mxGeometry x="420" y="370" width="100" height="50" as="geometry" />
        </mxCell>
        <mxCell id="JoFvKGABeKlZMph5uTe8-22" value="Inscrições" style="text;html=1;align=center;verticalAlign=middle;resizable=0;points=[];autosize=1;strokeColor=none;fillColor=none;" vertex="1" parent="1">
          <mxGeometry x="435" y="380" width="80" height="30" as="geometry" />
        </mxCell>
        <mxCell id="JoFvKGABeKlZMph5uTe8-23" value="" style="rounded=1;whiteSpace=wrap;html=1;" vertex="1" parent="1">
          <mxGeometry x="400" y="380" width="30" height="10" as="geometry" />
        </mxCell>
        <mxCell id="JoFvKGABeKlZMph5uTe8-24" value="" style="rounded=1;whiteSpace=wrap;html=1;" vertex="1" parent="1">
          <mxGeometry x="400" y="400" width="30" height="10" as="geometry" />
        </mxCell>
        <mxCell id="JoFvKGABeKlZMph5uTe8-25" value="" style="rounded=0;whiteSpace=wrap;html=1;" vertex="1" parent="1">
          <mxGeometry x="420" y="440" width="100" height="50" as="geometry" />
        </mxCell>
        <mxCell id="JoFvKGABeKlZMph5uTe8-26" value="Alocação" style="text;html=1;align=center;verticalAlign=middle;resizable=0;points=[];autosize=1;strokeColor=none;fillColor=none;" vertex="1" parent="1">
          <mxGeometry x="440" y="450" width="70" height="30" as="geometry" />
        </mxCell>
        <mxCell id="JoFvKGABeKlZMph5uTe8-27" value="" style="rounded=1;whiteSpace=wrap;html=1;" vertex="1" parent="1">
          <mxGeometry x="400" y="450" width="30" height="10" as="geometry" />
        </mxCell>
        <mxCell id="JoFvKGABeKlZMph5uTe8-28" value="" style="rounded=1;whiteSpace=wrap;html=1;" vertex="1" parent="1">
          <mxGeometry x="400" y="470" width="30" height="10" as="geometry" />
        </mxCell>
        <mxCell id="JoFvKGABeKlZMph5uTe8-29" value="" style="rounded=0;whiteSpace=wrap;html=1;" vertex="1" parent="1">
          <mxGeometry x="420" y="510" width="100" height="50" as="geometry" />
        </mxCell>
        <mxCell id="JoFvKGABeKlZMph5uTe8-30" value="Resultados" style="text;html=1;align=center;verticalAlign=middle;resizable=0;points=[];autosize=1;strokeColor=none;fillColor=none;" vertex="1" parent="1">
          <mxGeometry x="435" y="520" width="80" height="30" as="geometry" />
        </mxCell>
        <mxCell id="JoFvKGABeKlZMph5uTe8-31" value="" style="rounded=1;whiteSpace=wrap;html=1;" vertex="1" parent="1">
          <mxGeometry x="400" y="520" width="30" height="10" as="geometry" />
        </mxCell>
        <mxCell id="JoFvKGABeKlZMph5uTe8-32" value="" style="rounded=1;whiteSpace=wrap;html=1;" vertex="1" parent="1">
          <mxGeometry x="400" y="540" width="30" height="10" as="geometry" />
        </mxCell>
        <mxCell id="JoFvKGABeKlZMph5uTe8-33" value="" style="rounded=0;whiteSpace=wrap;html=1;" vertex="1" parent="1">
          <mxGeometry x="420" y="590" width="100" height="50" as="geometry" />
        </mxCell>
        <mxCell id="JoFvKGABeKlZMph5uTe8-34" value="Relatório" style="text;html=1;align=center;verticalAlign=middle;resizable=0;points=[];autosize=1;strokeColor=none;fillColor=none;" vertex="1" parent="1">
          <mxGeometry x="440" y="600" width="70" height="30" as="geometry" />
        </mxCell>
        <mxCell id="JoFvKGABeKlZMph5uTe8-35" value="" style="rounded=1;whiteSpace=wrap;html=1;" vertex="1" parent="1">
          <mxGeometry x="400" y="600" width="30" height="10" as="geometry" />
        </mxCell>
        <mxCell id="JoFvKGABeKlZMph5uTe8-36" value="" style="rounded=1;whiteSpace=wrap;html=1;" vertex="1" parent="1">
          <mxGeometry x="400" y="620" width="30" height="10" as="geometry" />
        </mxCell>
        <mxCell id="JoFvKGABeKlZMph5uTe8-40" value="" style="endArrow=none;html=1;rounded=0;entryX=0.004;entryY=0.309;entryDx=0;entryDy=0;entryPerimeter=0;" edge="1" parent="1" source="JoFvKGABeKlZMph5uTe8-41" target="JoFvKGABeKlZMph5uTe8-19">
          <mxGeometry width="50" height="50" relative="1" as="geometry">
            <mxPoint x="390" y="308" as="sourcePoint" />
            <mxPoint x="510" y="430" as="targetPoint" />
          </mxGeometry>
        </mxCell>
        <mxCell id="JoFvKGABeKlZMph5uTe8-42" value="" style="endArrow=none;html=1;rounded=0;entryX=0.004;entryY=0.309;entryDx=0;entryDy=0;entryPerimeter=0;" edge="1" parent="1" target="JoFvKGABeKlZMph5uTe8-41">
          <mxGeometry width="50" height="50" relative="1" as="geometry">
            <mxPoint x="390" y="308" as="sourcePoint" />
            <mxPoint x="400" y="308" as="targetPoint" />
          </mxGeometry>
        </mxCell>
        <mxCell id="JoFvKGABeKlZMph5uTe8-41" value="" style="ellipse;whiteSpace=wrap;html=1;" vertex="1" parent="1">
          <mxGeometry x="390" y="306.33" width="5.5" height="3.67" as="geometry" />
        </mxCell>
        <mxCell id="JoFvKGABeKlZMph5uTe8-43" value="" style="endArrow=none;html=1;rounded=0;entryX=0.004;entryY=0.309;entryDx=0;entryDy=0;entryPerimeter=0;" edge="1" parent="1" source="JoFvKGABeKlZMph5uTe8-44">
          <mxGeometry width="50" height="50" relative="1" as="geometry">
            <mxPoint x="390" y="381.67" as="sourcePoint" />
            <mxPoint x="400" y="381.67" as="targetPoint" />
          </mxGeometry>
        </mxCell>
        <mxCell id="JoFvKGABeKlZMph5uTe8-44" value="" style="ellipse;whiteSpace=wrap;html=1;" vertex="1" parent="1">
          <mxGeometry x="390" y="380" width="5.5" height="3.67" as="geometry" />
        </mxCell>
        <mxCell id="JoFvKGABeKlZMph5uTe8-45" value="" style="endArrow=none;html=1;rounded=0;entryX=0.004;entryY=0.309;entryDx=0;entryDy=0;entryPerimeter=0;" edge="1" parent="1" source="JoFvKGABeKlZMph5uTe8-46">
          <mxGeometry width="50" height="50" relative="1" as="geometry">
            <mxPoint x="390" y="451.67" as="sourcePoint" />
            <mxPoint x="400" y="451.67" as="targetPoint" />
          </mxGeometry>
        </mxCell>
        <mxCell id="JoFvKGABeKlZMph5uTe8-46" value="" style="ellipse;whiteSpace=wrap;html=1;" vertex="1" parent="1">
          <mxGeometry x="390" y="450" width="5.5" height="3.67" as="geometry" />
        </mxCell>
        <mxCell id="JoFvKGABeKlZMph5uTe8-47" value="" style="endArrow=none;html=1;rounded=0;entryX=0.004;entryY=0.309;entryDx=0;entryDy=0;entryPerimeter=0;" edge="1" parent="1" source="JoFvKGABeKlZMph5uTe8-48">
          <mxGeometry width="50" height="50" relative="1" as="geometry">
            <mxPoint x="390" y="521.67" as="sourcePoint" />
            <mxPoint x="400" y="521.67" as="targetPoint" />
          </mxGeometry>
        </mxCell>
        <mxCell id="JoFvKGABeKlZMph5uTe8-48" value="" style="ellipse;whiteSpace=wrap;html=1;" vertex="1" parent="1">
          <mxGeometry x="390" y="520" width="5.5" height="3.67" as="geometry" />
        </mxCell>
        <mxCell id="JoFvKGABeKlZMph5uTe8-49" value="" style="endArrow=none;html=1;rounded=0;entryX=0.004;entryY=0.309;entryDx=0;entryDy=0;entryPerimeter=0;" edge="1" parent="1" source="JoFvKGABeKlZMph5uTe8-50">
          <mxGeometry width="50" height="50" relative="1" as="geometry">
            <mxPoint x="390" y="601.67" as="sourcePoint" />
            <mxPoint x="400" y="601.67" as="targetPoint" />
          </mxGeometry>
        </mxCell>
        <mxCell id="JoFvKGABeKlZMph5uTe8-50" value="" style="ellipse;whiteSpace=wrap;html=1;" vertex="1" parent="1">
          <mxGeometry x="390" y="600" width="5.5" height="3.67" as="geometry" />
        </mxCell>
        <mxCell id="JoFvKGABeKlZMph5uTe8-53" value="" style="endArrow=classic;html=1;rounded=0;entryX=0;entryY=1;entryDx=0;entryDy=0;" edge="1" parent="1" source="JoFvKGABeKlZMph5uTe8-5" target="JoFvKGABeKlZMph5uTe8-41">
          <mxGeometry width="50" height="50" relative="1" as="geometry">
            <mxPoint x="240" y="375" as="sourcePoint" />
            <mxPoint x="290" y="325" as="targetPoint" />
          </mxGeometry>
        </mxCell>
        <mxCell id="JoFvKGABeKlZMph5uTe8-54" value="" style="endArrow=classic;html=1;rounded=0;entryX=0;entryY=0.5;entryDx=0;entryDy=0;exitX=0.971;exitY=0.452;exitDx=0;exitDy=0;exitPerimeter=0;" edge="1" parent="1" source="JoFvKGABeKlZMph5uTe8-5" target="JoFvKGABeKlZMph5uTe8-44">
          <mxGeometry width="50" height="50" relative="1" as="geometry">
            <mxPoint x="410" y="400" as="sourcePoint" />
            <mxPoint x="460" y="350" as="targetPoint" />
          </mxGeometry>
        </mxCell>
        <mxCell id="JoFvKGABeKlZMph5uTe8-57" value="" style="endArrow=classic;html=1;rounded=0;entryX=0;entryY=0.5;entryDx=0;entryDy=0;exitX=0.979;exitY=0.486;exitDx=0;exitDy=0;exitPerimeter=0;" edge="1" parent="1" source="JoFvKGABeKlZMph5uTe8-5" target="JoFvKGABeKlZMph5uTe8-46">
          <mxGeometry width="50" height="50" relative="1" as="geometry">
            <mxPoint x="270" y="395" as="sourcePoint" />
            <mxPoint x="320" y="345" as="targetPoint" />
          </mxGeometry>
        </mxCell>
        <mxCell id="JoFvKGABeKlZMph5uTe8-58" value="" style="endArrow=classic;html=1;rounded=0;entryX=0;entryY=1;entryDx=0;entryDy=0;exitX=0.979;exitY=0.452;exitDx=0;exitDy=0;exitPerimeter=0;" edge="1" parent="1" source="JoFvKGABeKlZMph5uTe8-5" target="JoFvKGABeKlZMph5uTe8-48">
          <mxGeometry width="50" height="50" relative="1" as="geometry">
            <mxPoint x="410" y="540" as="sourcePoint" />
            <mxPoint x="460" y="490" as="targetPoint" />
          </mxGeometry>
        </mxCell>
        <mxCell id="JoFvKGABeKlZMph5uTe8-59" value="" style="endArrow=classic;html=1;rounded=0;entryX=0;entryY=0;entryDx=0;entryDy=0;exitX=0.971;exitY=0.452;exitDx=0;exitDy=0;exitPerimeter=0;" edge="1" parent="1" source="JoFvKGABeKlZMph5uTe8-5" target="JoFvKGABeKlZMph5uTe8-50">
          <mxGeometry width="50" height="50" relative="1" as="geometry">
            <mxPoint x="300" y="530" as="sourcePoint" />
            <mxPoint x="460" y="490" as="targetPoint" />
          </mxGeometry>
        </mxCell>
        <mxCell id="JoFvKGABeKlZMph5uTe8-61" value="Banco de dados" style="text;html=1;align=center;verticalAlign=middle;resizable=0;points=[];autosize=1;strokeColor=none;fillColor=none;" vertex="1" parent="1">
          <mxGeometry x="675" y="239.34" width="110" height="30" as="geometry" />
        </mxCell>
        <mxCell id="JoFvKGABeKlZMph5uTe8-62" value="" style="rounded=0;whiteSpace=wrap;html=1;" vertex="1" parent="1">
          <mxGeometry x="680" y="360" width="100" height="50" as="geometry" />
        </mxCell>
        <mxCell id="JoFvKGABeKlZMph5uTe8-63" value="Persistência" style="text;html=1;align=center;verticalAlign=middle;resizable=0;points=[];autosize=1;strokeColor=none;fillColor=none;" vertex="1" parent="1">
          <mxGeometry x="690" y="370" width="90" height="30" as="geometry" />
        </mxCell>
        <mxCell id="JoFvKGABeKlZMph5uTe8-64" value="" style="rounded=1;whiteSpace=wrap;html=1;" vertex="1" parent="1">
          <mxGeometry x="660" y="370" width="30" height="10" as="geometry" />
        </mxCell>
        <mxCell id="JoFvKGABeKlZMph5uTe8-65" value="" style="rounded=1;whiteSpace=wrap;html=1;" vertex="1" parent="1">
          <mxGeometry x="660" y="390" width="30" height="10" as="geometry" />
        </mxCell>
        <mxCell id="JoFvKGABeKlZMph5uTe8-66" value="" style="endArrow=none;html=1;rounded=0;entryX=0.004;entryY=0.309;entryDx=0;entryDy=0;entryPerimeter=0;" edge="1" parent="1" source="JoFvKGABeKlZMph5uTe8-67" target="JoFvKGABeKlZMph5uTe8-64">
          <mxGeometry width="50" height="50" relative="1" as="geometry">
            <mxPoint x="650" y="373" as="sourcePoint" />
            <mxPoint x="770" y="495" as="targetPoint" />
          </mxGeometry>
        </mxCell>
        <mxCell id="JoFvKGABeKlZMph5uTe8-67" value="" style="ellipse;whiteSpace=wrap;html=1;" vertex="1" parent="1">
          <mxGeometry x="650" y="371.33" width="5.5" height="3.67" as="geometry" />
        </mxCell>
        <mxCell id="JoFvKGABeKlZMph5uTe8-68" value="" style="rounded=0;whiteSpace=wrap;html=1;" vertex="1" parent="1">
          <mxGeometry x="730" y="290" width="100" height="50" as="geometry" />
        </mxCell>
        <mxCell id="JoFvKGABeKlZMph5uTe8-69" value="SBGD" style="text;html=1;align=center;verticalAlign=middle;resizable=0;points=[];autosize=1;strokeColor=none;fillColor=none;" vertex="1" parent="1">
          <mxGeometry x="755" y="300" width="60" height="30" as="geometry" />
        </mxCell>
        <mxCell id="JoFvKGABeKlZMph5uTe8-70" value="" style="rounded=1;whiteSpace=wrap;html=1;" vertex="1" parent="1">
          <mxGeometry x="710" y="300" width="30" height="10" as="geometry" />
        </mxCell>
        <mxCell id="JoFvKGABeKlZMph5uTe8-71" value="" style="rounded=1;whiteSpace=wrap;html=1;" vertex="1" parent="1">
          <mxGeometry x="710" y="320" width="30" height="10" as="geometry" />
        </mxCell>
        <mxCell id="JoFvKGABeKlZMph5uTe8-72" value="" style="endArrow=none;html=1;rounded=0;entryX=0.004;entryY=0.309;entryDx=0;entryDy=0;entryPerimeter=0;" edge="1" parent="1" source="JoFvKGABeKlZMph5uTe8-73" target="JoFvKGABeKlZMph5uTe8-70">
          <mxGeometry width="50" height="50" relative="1" as="geometry">
            <mxPoint x="700" y="303" as="sourcePoint" />
            <mxPoint x="820" y="425" as="targetPoint" />
          </mxGeometry>
        </mxCell>
        <mxCell id="JoFvKGABeKlZMph5uTe8-73" value="" style="ellipse;whiteSpace=wrap;html=1;" vertex="1" parent="1">
          <mxGeometry x="700" y="301.33" width="5.5" height="3.67" as="geometry" />
        </mxCell>
        <mxCell id="JoFvKGABeKlZMph5uTe8-74" value="" style="endArrow=classic;html=1;rounded=0;exitX=0.5;exitY=0;exitDx=0;exitDy=0;entryX=0;entryY=0.5;entryDx=0;entryDy=0;" edge="1" parent="1" source="JoFvKGABeKlZMph5uTe8-67" target="JoFvKGABeKlZMph5uTe8-73">
          <mxGeometry width="50" height="50" relative="1" as="geometry">
            <mxPoint x="600" y="350" as="sourcePoint" />
            <mxPoint x="650" y="300" as="targetPoint" />
            <Array as="points">
              <mxPoint x="653" y="303" />
            </Array>
          </mxGeometry>
        </mxCell>
        <mxCell id="JoFvKGABeKlZMph5uTe8-75" value="" style="endArrow=classic;html=1;rounded=0;exitX=1;exitY=0.5;exitDx=0;exitDy=0;entryX=0;entryY=1;entryDx=0;entryDy=0;" edge="1" parent="1" source="JoFvKGABeKlZMph5uTe8-33" target="JoFvKGABeKlZMph5uTe8-67">
          <mxGeometry width="50" height="50" relative="1" as="geometry">
            <mxPoint x="640" y="550" as="sourcePoint" />
            <mxPoint x="690" y="500" as="targetPoint" />
          </mxGeometry>
        </mxCell>
        <mxCell id="JoFvKGABeKlZMph5uTe8-76" value="" style="endArrow=classic;html=1;rounded=0;exitX=1;exitY=0.5;exitDx=0;exitDy=0;entryX=0;entryY=0;entryDx=0;entryDy=0;" edge="1" parent="1" source="JoFvKGABeKlZMph5uTe8-29" target="JoFvKGABeKlZMph5uTe8-67">
          <mxGeometry width="50" height="50" relative="1" as="geometry">
            <mxPoint x="640" y="550" as="sourcePoint" />
            <mxPoint x="690" y="500" as="targetPoint" />
          </mxGeometry>
        </mxCell>
        <mxCell id="JoFvKGABeKlZMph5uTe8-77" value="" style="endArrow=classic;html=1;rounded=0;exitX=1;exitY=0.5;exitDx=0;exitDy=0;entryX=0;entryY=0.5;entryDx=0;entryDy=0;" edge="1" parent="1" source="JoFvKGABeKlZMph5uTe8-25" target="JoFvKGABeKlZMph5uTe8-67">
          <mxGeometry width="50" height="50" relative="1" as="geometry">
            <mxPoint x="640" y="550" as="sourcePoint" />
            <mxPoint x="650" y="380" as="targetPoint" />
          </mxGeometry>
        </mxCell>
        <mxCell id="JoFvKGABeKlZMph5uTe8-78" value="" style="endArrow=classic;html=1;rounded=0;exitX=1;exitY=0.5;exitDx=0;exitDy=0;entryX=0;entryY=0.5;entryDx=0;entryDy=0;" edge="1" parent="1" source="JoFvKGABeKlZMph5uTe8-21" target="JoFvKGABeKlZMph5uTe8-67">
          <mxGeometry width="50" height="50" relative="1" as="geometry">
            <mxPoint x="610" y="420" as="sourcePoint" />
            <mxPoint x="660" y="370" as="targetPoint" />
          </mxGeometry>
        </mxCell>
        <mxCell id="JoFvKGABeKlZMph5uTe8-79" value="" style="endArrow=classic;html=1;rounded=0;exitX=0.986;exitY=0.502;exitDx=0;exitDy=0;exitPerimeter=0;entryX=0;entryY=0.5;entryDx=0;entryDy=0;" edge="1" parent="1" source="JoFvKGABeKlZMph5uTe8-18" target="JoFvKGABeKlZMph5uTe8-67">
          <mxGeometry width="50" height="50" relative="1" as="geometry">
            <mxPoint x="540" y="350" as="sourcePoint" />
            <mxPoint x="590" y="300" as="targetPoint" />
          </mxGeometry>
        </mxCell>
        <mxCell id="JoFvKGABeKlZMph5uTe8-83" value="" style="endArrow=none;html=1;rounded=0;exitX=1;exitY=0.25;exitDx=0;exitDy=0;" edge="1" parent="1">
          <mxGeometry width="50" height="50" relative="1" as="geometry">
            <mxPoint x="548" y="290" as="sourcePoint" />
            <mxPoint x="640" y="290" as="targetPoint" />
          </mxGeometry>
        </mxCell>
        <mxCell id="JoFvKGABeKlZMph5uTe8-84" value="&amp;lt;ODBC&amp;gt;" style="text;html=1;align=center;verticalAlign=middle;resizable=0;points=[];autosize=1;strokeColor=none;fillColor=none;" vertex="1" parent="1">
          <mxGeometry x="550" y="260" width="70" height="30" as="geometry" />
        </mxCell>
      </root>
    </mxGraphModel>
  </diagram>
</mxfile>
